HIERARCHY
ROOT Hips
{
	OFFSET	0	0	0
	CHANNELS 6  Xposition Yposition Zposition Xrotation Yrotation Zrotation
	JOINT Spine
	{
		OFFSET	0	7.00908	1.40711
		CHANNELS 3  Xrotation Yrotation Zrotation
		JOINT Spine1
		{
			OFFSET	0	11.9997	-2.14281
			CHANNELS 3  Xrotation Yrotation Zrotation
			JOINT Spine2
			{
				OFFSET	0	9.09621	0.974976
				CHANNELS 3  Xrotation Yrotation Zrotation
				JOINT Spine3
				{
					OFFSET	0	10.8855	3.23564
					CHANNELS 3  Xrotation Yrotation Zrotation
					JOINT Spine4
					{
						OFFSET	0	16.1139	-1.64996
						CHANNELS 3  Xrotation Yrotation Zrotation
						JOINT Neck
						{
							OFFSET	0	7.69267	-5.38915
							CHANNELS 3  Xrotation Yrotation Zrotation
							JOINT Head
							{
								OFFSET	0	9.23549	-2.76422
								CHANNELS 3  Xrotation Yrotation Zrotation
								End Site
								{
									OFFSET	0	19.2638	-0.93212
								}
							}
						}
					}
					JOINT LeftShoulder
					{
						OFFSET	-4.62846	19.5852	-9.23549
						CHANNELS 3  Xrotation Yrotation Zrotation
						JOINT LeftArm
						{
							OFFSET	-10.1082	-2.76422	3.54636
							CHANNELS 3  Xrotation Yrotation Zrotation
							JOINT LeftForeArm
							{
								OFFSET	-30.9178	-1.41114	2.20688
								CHANNELS 3  Xrotation Yrotation Zrotation
								JOINT LeftHand
								{
									OFFSET	-25.989	-1.79599	1.85507
									CHANNELS 3  Xrotation Yrotation Zrotation
									End Site
									{
										OFFSET	-9.4847	-0.655447	0.676963
									}
								}
							}
						}
					}
					JOINT RightShoulder
					{
						OFFSET	4.62846	19.5852	-9.23549
						CHANNELS 3  Xrotation Yrotation Zrotation
						JOINT RightArm
						{
							OFFSET	10.1082	-2.76422	3.54636
							CHANNELS 3  Xrotation Yrotation Zrotation
							JOINT RightForeArm
							{
								OFFSET	30.9178	-1.41114	2.20688
								CHANNELS 3  Xrotation Yrotation Zrotation
								JOINT RightHand
								{
									OFFSET	25.989	-1.79599	1.85507
									CHANNELS 3  Xrotation Yrotation Zrotation
									End Site
									{
										OFFSET	9.4847	-0.655447	0.676963
									}
								}
							}
						}
					}
				}
			}
		}
	}
	JOINT LeftUpLeg
	{
		OFFSET	-9.51492	-3.50454	-0.703555
		CHANNELS 3  Xrotation Yrotation Zrotation
		JOINT LeftLeg
		{
			OFFSET	-2.15663	-42.2584	-0.660591
			CHANNELS 3  Xrotation Yrotation Zrotation
			JOINT LeftFoot
			{
				OFFSET	-2.11138	-38.9194	3.34707
				CHANNELS 3  Xrotation Yrotation Zrotation
				JOINT LeftToeBase
				{
					OFFSET	0	-4.8091	-12.773
					CHANNELS 3  Xrotation Yrotation Zrotation
					End Site
					{
						OFFSET	0	-1.92364	-7.69456
					}
				}
			}
		}
	}
	JOINT RightUpLeg
	{
		OFFSET	9.51492	-3.50454	-0.703555
		CHANNELS 3  Xrotation Yrotation Zrotation
		JOINT RightLeg
		{
			OFFSET	2.15663	-42.2584	-0.660591
			CHANNELS 3  Xrotation Yrotation Zrotation
			JOINT RightFoot
			{
				OFFSET	2.11138	-38.9194	3.34707
				CHANNELS 3  Xrotation Yrotation Zrotation
				JOINT RightToeBase
				{
					OFFSET	0	-4.8091	-12.773
					CHANNELS 3  Xrotation Yrotation Zrotation
					End Site
					{
						OFFSET	0	-1.92364	-7.69456
					}
				}
			}
		}
	}
}
MOTION
Frames: 16
Frame Time: 0.020408
 193.836 92.0701 54.6087 8.19438 -16.0649 3.78615 179.999 -179.933 179.131 174.872 -179.865 178.551 175.986 -179.596 178.551 179.945 -179.933 179.131 170.447 179.952 179.714 157.58 179.188 -177.882 173.275 179.143 -179.34 173.352 -172.388 166.247 42.9481 -17.1559 82.0844 129.842 -40.6934 140.1 -0 15.4299 6.18008 0.848049 15.8334 -1.80481 165.96 170.021 120.041 11.0231 32.0528 -4.09718 -0 -3.49681 -2.94578 9.45257 22.4302 -6.04629 169.616 -173.649 -179.622 172.465 -179.959 -168.517 175.273 180 -180 170.336 -159.988 171.91 178.176 178.267 -176.024 3.65751 1.22747 -1.89748 179.489 180 -180
 193.754 91.9729 54.554 7.99581 -15.6058 3.88862 179.999 -179.92 178.999 174.781 -179.84 178.332 175.897 -179.52 178.332 179.897 -179.92 178.999 170.389 179.944 179.671 157.496 179.032 -177.314 173.251 179.024 -179.178 173.417 -171.852 166.341 44.1523 -16.5996 82.2562 129.611 -41.046 139.733 -0 14.3633 6.11113 0.731631 15.8375 -1.557 166.35 170.245 120.185 10.8506 31.7666 -3.99949 -0 -3.0945 -2.55778 10.7198 22.418 -5.12317 171.674 -172.808 -179.769 169.028 -179.964 -168.551 175.275 180 -180 171.079 -159.476 171.977 176.676 178.351 -176.191 4.43356 1.78753 -0.414757 179.463 180 -180
 193.609 91.8536 54.1363 7.86195 -15.4605 3.77491 179.999 -179.929 178.917 174.71 -179.859 178.195 175.822 -179.576 178.195 179.839 -179.929 178.917 170.389 179.94 179.644 157.56 179.001 -176.835 173.272 179.137 -179.072 173.268 -171.509 165.994 45.2245 -16.1593 81.9079 129.557 -41.1746 139.577 -0 13.3667 6.05632 0.70785 15.8107 -1.50624 166.579 170.508 120.422 10.6441 31.2064 -3.83843 -0 -2.81629 -2.31752 11.6928 22.4395 -4.46537 173.223 -172.076 -179.521 165.409 -179.961 -168.525 175.278 180 -180 171.883 -159.132 172.45 174.943 178.903 -176.017 5.60463 1.25038 -2.48082 179.458 180 -180
 193.604 91.7489 53.8834 7.53629 -15.0778 3.78079 179.998 -179.924 178.812 174.649 -179.848 178.021 175.762 -179.544 178.02 179.806 -179.924 178.812 170.353 179.934 179.61 157.508 179.017 -176.242 173.259 179.367 -178.952 173.148 -171.075 165.703 45.7559 -15.9151 81.5773 129.538 -41.2198 139.585 -0 12.5039 6.07922 0.628648 15.7816 -1.33753 166.919 170.609 120.704 10.566 31.0949 -3.79514 -0 -2.50825 -2.14226 12.6811 22.4516 -3.67379 174.683 -171.369 -179.4 162.198 -179.957 -168.524 175.28 180 -180 172.443 -158.916 172.328 173.904 179.022 -175.735 6.3346 1.73953 -1.11379 179.433 180 -180
 193.588 91.6503 53.5748 7.29773 -14.6811 3.67391 179.999 -179.936 178.748 174.594 -179.872 177.914 175.706 -179.615 177.914 179.763 -179.936 178.748 170.346 179.93 179.589 157.537 179.086 -175.866 173.269 179.634 -178.893 173.059 -170.82 165.492 46.0277 -15.5247 81.3229 129.599 -41.2188 139.461 -0 11.7297 6.05443 0.466602 16.1645 -0.994054 167.701 170.385 121.047 10.5182 31.3013 -3.80833 -0 -2.17537 -2.04338 13.3553 22.4941 -3.13153 175.785 -170.83 -179.453 159.765 -179.988 -168.523 175.282 180 -180 172.968 -158.664 172.821 172.812 179.369 -176.144 7.18547 1.87216 -1.12579 179.419 180 -180
 193.374 91.5601 53.4361 7.02695 -14.6283 3.63668 179.999 -179.942 178.659 174.487 -179.884 177.764 175.597 -179.653 177.764 179.683 -179.942 178.659 170.331 179.925 179.559 157.587 179.073 -175.113 173.288 179.88 -178.734 173.153 -170.344 165.655 46.2056 -14.5923 81.2586 129.587 -41.3486 139.324 -0 10.9556 5.92693 0.270816 16.3563 -0.577309 168.303 170.271 121.499 10.4833 31.5322 -3.78032 -0 -1.86884 -1.9416 14.3341 22.6616 -2.19306 176.555 -170.357 -179.464 156.901 -179.988 -168.542 175.28 180 -180 173.655 -158.354 173.172 171.903 179.768 -176.229 7.72896 1.54047 -2.38712 179.408 180 -180
 193.49 91.4634 53.2763 6.72432 -14.6651 3.70358 179.999 -179.943 178.587 174.401 -179.885 177.645 175.488 -179.655 177.645 179.558 -179.943 178.587 170.461 179.922 179.535 158.027 178.999 -174.51 173.423 -179.974 -178.599 173.12 -169.87 165.549 46.1839 -13.5568 80.8167 129.495 -41.5921 139.118 -0 10.3295 5.78052 0.100648 16.4722 -0.214637 169.065 169.985 121.423 10.5587 31.9988 -3.92719 -0 -1.53363 -1.97967 15.3616 22.8071 -1.76515 176.986 -170.098 -179.886 156.052 179.998 -168.549 175.278 180 -180 174.116 -158.445 173.057 171.08 179.847 -176.229 8.30904 2.19025 -0.73063 179.388 180 -180
 193.364 91.3597 52.703 6.69307 -14.8291 3.74146 179.998 -179.941 178.527 174.337 -179.882 177.546 175.386 -179.645 177.546 179.406 -179.941 178.527 170.695 179.921 179.516 158.747 178.794 -174.107 173.643 179.917 -178.478 173.088 -169.515 165.451 46.0094 -12.6122 80.4355 129.416 -41.6768 138.964 -0 9.67647 5.69053 179.905 163.956 -179.797 169.486 169.861 121.27 10.7185 32.6086 -4.00711 -0 -1.02467 -2.20379 16.1573 23.5926 -1.14096 176.716 -170.674 -179.872 156.461 179.967 -168.609 175.285 180 -180 174.275 -158.275 173.484 170.083 -179.716 -176.475 9.14962 1.91313 -1.8702 179.385 180 -180
 193.435 91.5844 51.793 6.40606 -15.0789 3.61663 179.999 -179.962 178.518 174.466 -179.924 177.53 175.275 -179.772 177.53 178.758 -179.962 178.518 172.45 179.935 179.51 163.621 177.749 -174.378 175.109 178.746 -178.384 173.495 -168.041 166.229 46.408 -11.5877 80.9785 129.864 -41.1661 139.5 -0 8.76068 5.42934 179.653 164.506 -179.262 170.249 169.842 120.724 10.8827 33.3535 -4.0648 -0 -0.533265 -2.42167 16.3124 24.3709 -0.883633 175.94 -171.439 179.933 157.58 179.966 -168.705 175.294 180 -180 174.214 -158.201 173.967 169.754 -179.574 -176.807 9.25822 2.03815 -1.70397 179.423 180 -180
 193.481 91.4953 51.8139 5.97256 -14.8745 3.51743 179.999 -179.959 178.545 174.286 -179.918 177.575 175.085 -179.754 177.575 178.611 -179.959 178.545 172.451 179.936 179.519 163.813 177.765 -175.087 175.16 178.422 -178.529 173.407 -167.968 166.035 46.4927 -10.7472 80.7952 130.806 -39.8059 141.489 -0 7.80054 5.26293 179.563 165.321 -179.074 170.643 170.039 120.327 11.0526 34.1536 -4.44657 -0 -0.162438 -2.66507 17.5858 25.0164 -1.0083 175.471 -172.246 -179.856 157.113 179.963 -168.774 175.301 180 -180 175.035 -157.807 173.98 168.623 -179.363 -176.716 9.80436 2.13557 -1.65066 179.426 180 -180
 193.322 91.3303 51.605 5.71471 -14.6432 3.99124 179.999 -179.954 178.447 174.098 -179.908 177.411 174.896 -179.725 177.411 178.486 -179.954 178.447 172.389 179.931 179.487 163.829 177.809 -175.67 175.16 178.187 -178.653 173.438 -167.848 166.094 46.4163 -9.84436 80.7563 131.823 -38.3237 143.24 -0 6.92543 5.07982 179.326 166.011 -178.577 171.376 170.132 120.147 11.1945 34.8582 -4.6821 -0 0.162274 -2.82673 18.5841 25.6431 -1.08583 174.827 -172.991 -179.902 157.111 179.986 -168.862 175.306 180 -180 175.456 -157.542 173.629 167.74 -179.031 -176.641 10.2848 1.77913 -2.10589 179.423 180 -180
 193.576 91.2387 50.7008 5.98182 -18.592 4.85115 0.00548699 0.206892 -1.51919 174.035 179.586 177.468 174.847 178.759 177.467 178.343 179.793 178.481 172.579 179.935 179.498 164.45 177.707 -175.718 175.346 178.062 -178.651 173.086 -167.675 165.318 46.3776 -9.25158 80.0341 132.359 -37.4958 144.076 -0 6.30534 4.904 179.352 166.346 -178.632 172.599 169.901 119.703 11.4058 35.8446 -5.06795 -0 0.530872 -3.06246 17.078 22.5569 -0.637974 174.232 -170.148 175.613 164.657 -179.023 -179.942 175.551 180 -180 175.342 -157.857 173.363 166.919 -179.211 -176.452 10.7522 2.38723 -3.08743 179.427 180 -180
 193.602 91.2788 49.9512 6.076 -19.2522 5.15268 0.00465082 0.17336 -1.53673 173.978 179.654 177.439 174.751 178.961 177.438 178.206 179.827 178.463 172.794 179.936 179.492 165.11 177.99 -175.591 175.548 178.782 -178.702 172.706 -167.33 164.465 46.3345 -8.54823 79.5287 132.523 -37.2219 144.126 -0 5.94133 4.53754 179.09 166.9 -178.084 173.473 169.656 119.265 11.62 36.8672 -5.43361 -0 0.890955 -3.35123 17.1888 22.7313 -0.947814 173.011 -170.537 175.298 165.757 -178.839 178.396 175.64 180 -180 174.913 -158.449 173.267 166.703 -179.59 -176.339 10.8674 3.11657 -1.88488 179.477 180 -180
 193.779 91.4657 48.8408 6.47062 -20.4944 5.8435 0.00590486 0.208794 -1.61994 173.986 179.583 177.3 174.666 178.748 177.299 177.906 179.791 178.38 173.503 179.939 179.464 167.132 178.231 -175.813 176.156 179.418 -178.825 172.469 -167.118 163.93 46.4345 -7.91217 79.2431 132.725 -36.8996 144.347 -0 5.59486 4.15324 178.886 167.624 -177.662 174.001 169.479 118.584 11.8347 37.7727 -5.71212 -0 1.1815 -3.62503 16.8693 23.2692 -1.97703 172.18 -171.575 175.321 167.294 -178.917 179.522 175.568 180 -180 173.998 -158.296 173.279 166.361 -179.334 -176.744 10.9546 2.61379 -3.09929 179.494 180 -180
 193.871 91.6933 47.7834 6.55202 -21.1146 5.56486 0.00630957 0.239907 -1.50654 173.993 179.52 177.489 174.586 178.561 177.488 177.641 179.76 178.493 174.133 179.949 179.5 168.933 178.452 -176.339 176.693 179.728 -178.99 172.329 -166.576 163.584 46.9308 -7.54719 79.1897 133.062 -36.3518 144.986 -0 5.23812 3.89353 178.806 168.33 -177.503 174.349 169.308 117.612 12.052 38.642 -5.98345 -0 1.40989 -3.90408 16.1291 23.7328 -1.57684 171.744 -171.965 175.283 168.094 -178.832 178.121 175.661 180 -180 173.342 -158.65 173.893 166.6 -179.912 -176.772 10.9605 3.18291 -2.30004 179.575 180 -180
 194.047 91.8746 46.8386 6.40715 -21.4802 6.14731 0.00711457 0.266072 -1.53169 174.01 179.468 177.447 174.557 178.405 177.446 177.497 179.734 178.468 174.499 179.951 179.492 169.984 178.514 -177.298 177.003 179.264 -179.196 172.373 -166.095 163.649 47.4535 -7.26762 79.6893 133.417 -35.659 145.816 -0 4.7839 3.72742 178.728 168.8 -177.345 174.19 169.24 117.037 12.0644 38.8163 -6.01983 -0 1.52451 -4.27712 16.1115 23.979 -2.41361 171.462 -172.485 175.51 169.067 -178.781 178.021 175.648 180 -180 172.542 -159.022 173.192 166.894 179.713 -176.629 10.7496 2.78269 -2.50312 179.617 180 -180
